<svg width="20" height="20" viewBox="0 0 20 20" fill="none" xmlns="http://www.w3.org/2000/svg">
<path fill-rule="evenodd" clip-rule="evenodd" d="M18.8889 9.22754C18.8889 9.53437 18.6402 9.7831 18.3333 9.7831L10 9.7831L10 1.44976C10 1.14294 10.2487 0.894208 10.5556 0.894208C10.8624 0.894208 11.1111 1.14294 11.1111 1.44976L11.1111 7.88865L18.8056 0.194208C18.9413 0.035666 19.1545 -0.0333925 19.3575 0.0154252C19.5604 0.0642429 19.7189 0.222698 19.7677 0.425643C19.8165 0.628588 19.7474 0.84177 19.5889 0.977542L11.8945 8.67199H18.3333C18.6402 8.67199 18.8889 8.92072 18.8889 9.22754ZM3.33328 17.7778H15.5555C16.1692 17.7778 16.6666 17.2803 16.6666 16.6667V12.5H15.5555V16.6667H3.33328V4.44445H7.08331V3.33334H3.33328C2.71963 3.33334 2.22217 3.8308 2.22217 4.44445V16.6667C2.22217 17.2803 2.71963 17.7778 3.33328 17.7778Z" fill="white"/>
</svg>
