<svg width="20" height="20" viewBox="0 0 20 20" fill="none" xmlns="http://www.w3.org/2000/svg">
<path fill-rule="evenodd" clip-rule="evenodd" d="M9.89421 1.55556C9.89421 1.24873 10.1429 1 10.4498 1H18.7831V9.33333C18.7831 9.64016 18.5344 9.88889 18.2275 9.88889C17.9207 9.88889 17.672 9.64016 17.672 9.33333V2.89444L9.97755 10.5889C9.84178 10.7474 9.62859 10.8165 9.42565 10.7677C9.2227 10.7189 9.06425 10.5604 9.01543 10.3575C8.96661 10.1545 9.03567 9.94133 9.19421 9.80556L16.8887 2.11111H10.4498C10.1429 2.11111 9.89421 1.86238 9.89421 1.55556ZM3.33328 17.7778H15.5555C16.1692 17.7778 16.6666 17.2803 16.6666 16.6667V12.5H15.5555V16.6667H3.33328V4.44447H7.08331V3.33336H3.33328C2.71963 3.33336 2.22217 3.83082 2.22217 4.44447V16.6667C2.22217 17.2803 2.71963 17.7778 3.33328 17.7778Z" fill="white"/>
</svg>
